<?xml version="1.0" encoding="UTF-8"?>
<svg width="55px" height="55px" viewBox="0 0 55 55" version="1.1" xmlns="http://www.w3.org/2000/svg" xmlns:xlink="http://www.w3.org/1999/xlink">
    <title>Icon_CPU 2</title>
    <defs>
        <linearGradient x1="13.6181818%" y1="8.83636364%" x2="80.0363636%" y2="83.9818182%" id="linearGradient-1">
            <stop stop-color="#821446" offset="3%"></stop>
            <stop stop-color="#4A125C" offset="35%"></stop>
            <stop stop-color="#13114F" offset="58%"></stop>
            <stop stop-color="#002C6B" offset="77%"></stop>
            <stop stop-color="#004FA7" offset="99%"></stop>
        </linearGradient>
    </defs>
    <g id="Page-1" stroke="none" stroke-width="1" fill="none" fill-rule="evenodd">
        <g id="Icon_CPU-2" fill-rule="nonzero">
            <circle id="Oval" fill="url(#linearGradient-1)" cx="27.5" cy="27.5" r="27.5"></circle>
            <path d="M37.71,16.95 L27.22,16.95 C27.03,16.95 26.88,17.1 26.88,17.29 C26.88,17.48 27.03,17.63 27.22,17.63 L30.87,17.63 C30.87,17.63 30.87,17.66 30.87,17.68 L30.87,23.19 C30.06,23.35 29.45,24.06 29.45,24.91 C29.45,25.88 30.24,26.67 31.21,26.67 C32.18,26.67 32.96,25.88 32.96,24.91 C32.96,24.06 32.35,23.35 31.55,23.19 L31.55,17.68 C31.55,17.68 31.55,17.65 31.55,17.63 L37.39,17.63 L37.39,37.37 L31.56,37.37 L31.56,32.84 C32.37,32.68 32.98,31.97 32.98,31.12 C32.98,30.15 32.19,29.37 31.22,29.37 C30.25,29.37 29.47,30.16 29.47,31.12 C29.47,31.97 30.08,32.68 30.88,32.84 L30.88,37.37 L17.66,37.37 L17.66,34.56 C17.66,34.37 17.51,34.22 17.32,34.22 C17.13,34.22 16.98,34.37 16.98,34.56 L16.98,37.71 C16.98,37.9 17.13,38.05 17.32,38.05 L37.74,38.05 C37.93,38.05 38.08,37.9 38.08,37.71 L38.08,17.29 C38.08,17.1 37.93,16.95 37.74,16.95 L37.71,16.95 Z M32.27,24.9 C32.27,25.49 31.79,25.98 31.2,25.98 C30.61,25.98 30.12,25.5 30.12,24.9 C30.12,24.3 30.6,23.83 31.2,23.83 C31.8,23.83 32.27,24.31 32.27,24.9 Z M30.12,31.11 C30.12,30.52 30.6,30.03 31.19,30.03 C31.78,30.03 32.27,30.51 32.27,31.11 C32.27,31.71 31.79,32.19 31.19,32.19 C30.59,32.19 30.12,31.71 30.12,31.11 Z" id="Shape" fill="#FFFFFF"></path>
            <path d="M41.56,24.92 L45.13,24.92 C45.32,24.92 45.47,24.77 45.47,24.58 C45.47,24.39 45.32,24.24 45.13,24.24 L41.56,24.24 L41.56,22 L45.13,22 C45.32,22 45.47,21.85 45.47,21.66 C45.47,21.47 45.32,21.32 45.13,21.32 L41.56,21.32 L41.56,15.83 C41.56,14.65 40.69,13.67 39.56,13.48 C39.51,13.46 39.46,13.44 39.41,13.44 L33.68,13.44 L33.68,9.87 C33.68,9.68 33.53,9.53 33.34,9.53 C33.15,9.53 33,9.68 33,9.87 L33,13.44 L30.76,13.44 L30.76,9.87 C30.76,9.68 30.61,9.53 30.42,9.53 C30.23,9.53 30.08,9.68 30.08,9.87 L30.08,13.44 L27.84,13.44 L27.84,9.87 C27.84,9.68 27.69,9.53 27.5,9.53 C27.31,9.53 27.16,9.68 27.16,9.87 L27.16,13.44 L24.93,13.44 L24.93,9.87 C24.93,9.68 24.78,9.53 24.59,9.53 C24.4,9.53 24.25,9.68 24.25,9.87 L24.25,13.44 L22.01,13.44 L22.01,9.87 C22.01,9.68 21.86,9.53 21.67,9.53 C21.48,9.53 21.33,9.68 21.33,9.87 L21.33,13.44 L19.09,13.44 L19.09,9.87 C19.09,9.68 18.94,9.53 18.75,9.53 C18.56,9.53 18.41,9.68 18.41,9.87 L18.41,13.44 L16.17,13.44 L16.17,9.87 C16.17,9.68 16.02,9.53 15.83,9.53 C15.64,9.53 15.49,9.68 15.49,9.87 L15.49,13.47 C14.44,13.62 13.62,14.44 13.47,15.49 L9.87,15.49 C9.68,15.49 9.53,15.64 9.53,15.83 C9.53,16.02 9.68,16.17 9.87,16.17 L13.44,16.17 L13.44,18.41 L9.87,18.41 C9.68,18.41 9.53,18.56 9.53,18.75 C9.53,18.94 9.68,19.09 9.87,19.09 L13.44,19.09 L13.44,21.32 L9.87,21.32 C9.68,21.32 9.53,21.47 9.53,21.66 C9.53,21.85 9.68,22 9.87,22 L13.44,22 L13.44,24.24 L9.87,24.24 C9.68,24.24 9.53,24.39 9.53,24.58 C9.53,24.77 9.68,24.92 9.87,24.92 L13.44,24.92 L13.44,27.16 L9.87,27.16 C9.68,27.16 9.53,27.31 9.53,27.5 C9.53,27.69 9.68,27.84 9.87,27.84 L13.44,27.84 L13.44,30.08 L9.87,30.08 C9.68,30.08 9.53,30.23 9.53,30.42 C9.53,30.61 9.68,30.76 9.87,30.76 L13.44,30.76 L13.44,33 L9.87,33 C9.68,33 9.53,33.15 9.53,33.34 C9.53,33.53 9.68,33.68 9.87,33.68 L13.44,33.68 L13.44,35.92 L9.87,35.92 C9.68,35.92 9.53,36.07 9.53,36.26 C9.53,36.45 9.68,36.6 9.87,36.6 L13.44,36.6 L13.44,38.84 L9.87,38.84 C9.68,38.84 9.53,38.99 9.53,39.18 C9.53,39.37 9.68,39.52 9.87,39.52 L13.49,39.52 C13.54,39.86 13.64,40.19 13.83,40.48 C13.93,40.64 14.14,40.68 14.3,40.58 C14.46,40.48 14.5,40.27 14.4,40.11 C14.22,39.83 14.12,39.51 14.12,39.18 L14.12,15.83 L14.12,15.83 C14.12,14.89 14.89,14.12 15.83,14.12 L39.17,14.12 C40.11,14.12 40.88,14.89 40.88,15.83 L40.88,39.18 C40.88,40.12 40.11,40.89 39.17,40.89 L16.05,40.89 C15.99,40.89 15.93,40.89 15.87,40.89 C15.86,40.89 15.85,40.89 15.83,40.89 C15.81,40.89 15.79,40.91 15.77,40.91 C15.73,40.91 15.69,40.93 15.66,40.95 C15.64,40.96 15.62,40.97 15.6,40.99 C15.55,41.04 15.53,41.1 15.51,41.16 C15.51,41.16 15.5,41.17 15.5,41.18 C15.5,41.18 15.5,41.2 15.5,41.21 C15.5,41.21 15.5,41.22 15.5,41.23 L15.5,45.14 C15.5,45.33 15.65,45.48 15.84,45.48 C16.03,45.48 16.18,45.33 16.18,45.14 L16.18,41.57 L18.42,41.57 L18.42,45.14 C18.42,45.33 18.57,45.48 18.76,45.48 C18.95,45.48 19.1,45.33 19.1,45.14 L19.1,41.57 L21.34,41.57 L21.34,45.14 C21.34,45.33 21.49,45.48 21.68,45.48 C21.87,45.48 22.02,45.33 22.02,45.14 L22.02,41.57 L24.26,41.57 L24.26,45.14 C24.26,45.33 24.41,45.48 24.6,45.48 C24.79,45.48 24.94,45.33 24.94,45.14 L24.94,41.57 L27.17,41.57 L27.17,45.14 C27.17,45.33 27.32,45.48 27.51,45.48 C27.7,45.48 27.85,45.33 27.85,45.14 L27.85,41.57 L30.09,41.57 L30.09,45.14 C30.09,45.33 30.24,45.48 30.43,45.48 C30.62,45.48 30.77,45.33 30.77,45.14 L30.77,41.57 L33.01,41.57 L33.01,45.14 C33.01,45.33 33.16,45.48 33.35,45.48 C33.54,45.48 33.69,45.33 33.69,45.14 L33.69,41.57 L35.93,41.57 L35.93,45.14 C35.93,45.33 36.08,45.48 36.27,45.48 C36.46,45.48 36.61,45.33 36.61,45.14 L36.61,41.57 L38.85,41.57 L38.85,45.14 C38.85,45.33 39,45.48 39.19,45.48 C39.38,45.48 39.53,45.33 39.53,45.14 L39.53,41.54 C40.57,41.39 41.4,40.57 41.55,39.53 L45.15,39.53 C45.34,39.53 45.49,39.38 45.49,39.19 C45.49,39 45.34,38.85 45.15,38.85 L41.58,38.85 L41.58,36.61 L45.15,36.61 C45.34,36.61 45.49,36.46 45.49,36.27 C45.49,36.08 45.34,35.93 45.15,35.93 L41.58,35.93 L41.58,33.69 L45.15,33.69 C45.34,33.69 45.49,33.54 45.49,33.35 C45.49,33.16 45.34,33.01 45.15,33.01 L41.58,33.01 L41.58,30.77 L45.15,30.77 C45.34,30.77 45.49,30.62 45.49,30.43 C45.49,30.24 45.34,30.09 45.15,30.09 L41.58,30.09 L41.58,27.85 L45.15,27.85 C45.34,27.85 45.49,27.7 45.49,27.51 C45.49,27.32 45.34,27.17 45.15,27.17 L41.58,27.17 L41.58,24.93 L41.56,24.92 Z" id="Path" fill="#FFFFFF"></path>
            <path d="M25.4,16.95 L17.29,16.95 C17.1,16.95 16.95,17.1 16.95,17.29 L16.95,32.74 C16.95,32.93 17.1,33.08 17.29,33.08 C17.48,33.08 17.63,32.93 17.63,32.74 L17.63,17.63 L20.7,17.63 L20.7,23.88 C20.7,23.94 20.71,23.99 20.74,24.04 L22.42,27.17 C22.03,27.49 21.77,27.97 21.77,28.52 C21.77,29.49 22.56,30.28 23.53,30.28 C24.5,30.28 25.29,29.49 25.29,28.52 C25.29,27.55 24.5,26.77 23.53,26.77 C23.35,26.77 23.18,26.8 23.02,26.85 L21.38,23.8 L21.38,17.63 L25.4,17.63 C25.59,17.63 25.74,17.48 25.74,17.29 C25.74,17.1 25.59,16.95 25.4,16.95 L25.4,16.95 Z M23.53,27.45 C24.12,27.45 24.61,27.93 24.61,28.52 C24.61,29.11 24.13,29.6 23.53,29.6 C22.93,29.6 22.45,29.12 22.45,28.52 C22.45,27.92 22.93,27.45 23.53,27.45 L23.53,27.45 Z" id="Shape" fill="#FFFFFF"></path>
            <circle id="Oval" fill="#FC0000" cx="40.91" cy="14.09" r="6.5"></circle>
            <polygon id="Path" fill="#FFFFFF" points="42.01 12.98 42.01 10.78 39.81 10.78 39.81 12.98 37.6 12.98 37.6 15.19 39.81 15.19 39.81 17.4 42.01 17.4 42.01 15.19 44.22 15.19 44.22 12.98"></polygon>
        </g>
    </g>
</svg>
