<?xml version="1.0" encoding="UTF-8"?><svg id="Calque_1" xmlns="http://www.w3.org/2000/svg" xmlns:xlink="http://www.w3.org/1999/xlink" viewBox="0 0 55 55"><defs><style>.cls-1{fill:#fc0000;}.cls-2{fill:#fff;}.cls-3{fill:url(#Dégradé_sans_nom_186);}</style><linearGradient id="Dégradé_sans_nom_186" x1="7.49" y1="4.86" x2="44.02" y2="46.19" gradientTransform="matrix(1, 0, 0, 1, 0, 0)" gradientUnits="userSpaceOnUse"><stop offset=".03" stop-color="#821446"/><stop offset=".35" stop-color="#4a125c"/><stop offset=".58" stop-color="#13114f"/><stop offset=".77" stop-color="#002c6b"/><stop offset=".99" stop-color="#004fa7"/></linearGradient></defs><circle class="cls-3" cx="27.5" cy="27.5" r="27.5"/><g><path class="cls-2" d="M14.12,39.18v-9.69c0-.19-.15-.34-.34-.34s-.34,.15-.34,.34v.59h-3.57c-.19,0-.34,.15-.34,.34s.15,.34,.34,.34h3.57v2.24h-3.57c-.19,0-.34,.15-.34,.34s.15,.34,.34,.34h3.57v2.24h-3.57c-.19,0-.34,.15-.34,.34s.15,.34,.34,.34h3.57v2.24h-3.57c-.19,0-.34,.15-.34,.34s.15,.34,.34,.34h3.62c.05,.34,.15,.67,.34,.96,.1,.16,.31,.2,.47,.1,.16-.1,.2-.31,.1-.47-.18-.28-.28-.6-.28-.93Z"/><path class="cls-2" d="M26.14,14.12h10.88c.19,0,.34-.15,.34-.34s-.15-.34-.34-.34h-3.34v-3.57c0-.19-.15-.34-.34-.34s-.34,.15-.34,.34v3.57h-2.24v-3.57c0-.19-.15-.34-.34-.34s-.34,.15-.34,.34v3.57h-2.24v-3.57c0-.19-.15-.34-.34-.34s-.34,.15-.34,.34v3.57h-2.23v-3.57c0-.19-.15-.34-.34-.34s-.34,.15-.34,.34v3.57h-2.24v-3.57c0-.19-.15-.34-.34-.34s-.34,.15-.34,.34v3.57h-2.24v-3.57c0-.19-.15-.34-.34-.34s-.34,.15-.34,.34v3.57h-2.24v-3.57c0-.19-.15-.34-.34-.34s-.34,.15-.34,.34v3.6c-1.05,.15-1.87,.97-2.02,2.02h-3.6c-.19,0-.34,.15-.34,.34s.15,.34,.34,.34h3.57v2.24h-3.57c-.19,0-.34,.15-.34,.34s.15,.34,.34,.34h3.57v2.23h-3.57c-.19,0-.34,.15-.34,.34s.15,.34,.34,.34h3.57v2.24h-3.57c-.19,0-.34,.15-.34,.34s.15,.34,.34,.34h3.57v2.24h-3.57c-.19,0-.34,.15-.34,.34s.15,.34,.34,.34h3.62c.06,.1,.16,.17,.29,.17,.19,0,.34-.15,.34-.34V15.83h0c0-.94,.77-1.71,1.71-1.71h10.31Z"/><path class="cls-2" d="M38.83,14.12h.34c.94,0,1.71,.77,1.71,1.71v6.98c0,.19,.15,.34,.34,.34s.34-.15,.34-.34v-.81h3.57c.19,0,.34-.15,.34-.34s-.15-.34-.34-.34h-3.57v-5.49c0-1.32-1.07-2.39-2.39-2.39h-.34c-.19,0-.34,.15-.34,.34s.15,.34,.34,.34Z"/><path class="cls-2" d="M16.95,37.71c0,.19,.15,.34,.34,.34h7.73c.19,0,.34-.15,.34-.34s-.15-.34-.34-.34h-7.39v-2.81c0-.19-.15-.34-.34-.34s-.34,.15-.34,.34v3.15Z"/><path class="cls-2" d="M26.87,17.29c0,.19,.15,.34,.34,.34h3.65s0,.03,0,.05v5.51c-.81,.16-1.42,.87-1.42,1.72,0,.97,.79,1.76,1.76,1.76s1.75-.79,1.75-1.76c0-.85-.61-1.56-1.41-1.72v-5.51s0-.03,0-.05h5.84v12.73c0,.19,.15,.34,.34,.34s.34-.15,.34-.34v-13.07c0-.19-.15-.34-.34-.34h-10.49c-.19,0-.34,.15-.34,.34Zm5.39,7.61c0,.59-.48,1.08-1.07,1.08s-1.08-.48-1.08-1.08,.48-1.07,1.08-1.07,1.07,.48,1.07,1.07Z"/><path class="cls-2" d="M26.83,37.37c-.19,0-.34,.15-.34,.34s.15,.34,.34,.34h10.88c.19,0,.34-.15,.34-.34v-5.53c0-.19-.15-.34-.34-.34s-.34,.15-.34,.34v5.19h-5.83v-4.53c.81-.16,1.42-.87,1.42-1.72,0-.97-.79-1.75-1.76-1.75s-1.75,.79-1.75,1.75c0,.85,.61,1.56,1.41,1.72v4.53h-4.02Zm3.29-6.26c0-.59,.48-1.08,1.07-1.08s1.08,.48,1.08,1.08-.48,1.08-1.08,1.08-1.07-.48-1.07-1.08Z"/><path class="cls-2" d="M17.29,33.09c.19,0,.34-.15,.34-.34v-10.88c0-.19-.15-.34-.34-.34s-.34,.15-.34,.34v10.88c0,.19,.15,.34,.34,.34Z"/><path class="cls-2" d="M45.13,24.92c.19,0,.34-.15,.34-.34s-.15-.34-.34-.34h-3.91s-.09,0-.13,.03c-.12,.05-.21,.17-.21,.31v11.67s0,.09,.03,.13c.03,.08,.1,.15,.18,.18,.04,.02,.09,.03,.13,.03h3.91c.19,0,.34-.15,.34-.34s-.15-.34-.34-.34h-3.57v-2.24h3.57c.19,0,.34-.15,.34-.34s-.15-.34-.34-.34h-3.57v-2.24h3.57c.19,0,.34-.15,.34-.34s-.15-.34-.34-.34h-3.57v-2.24h3.57c.19,0,.34-.15,.34-.34s-.15-.34-.34-.34h-3.57v-2.24h3.57Z"/><path class="cls-2" d="M45.13,38.84h-3.57v-.62c0-.19-.15-.34-.34-.34s-.34,.15-.34,.34v.96c0,.94-.77,1.71-1.71,1.71H16.05c-.06,0-.12,0-.18,0-.01,0-.02,0-.04,0-.02,0-.04,.02-.06,.02-.04,0-.08,.02-.11,.04-.02,.01-.04,.02-.06,.04-.05,.05-.07,.11-.09,.17,0,0-.01,.01-.01,.02,0,0,0,.02,0,.03,0,0,0,.01,0,.02v3.91c0,.19,.15,.34,.34,.34s.34-.15,.34-.34v-3.57h2.24v3.57c0,.19,.15,.34,.34,.34s.34-.15,.34-.34v-3.57h2.24v3.57c0,.19,.15,.34,.34,.34s.34-.15,.34-.34v-3.57h2.24v3.57c0,.19,.15,.34,.34,.34s.34-.15,.34-.34v-3.57h2.23v3.57c0,.19,.15,.34,.34,.34s.34-.15,.34-.34v-3.57h2.24v3.57c0,.19,.15,.34,.34,.34s.34-.15,.34-.34v-3.57h2.24v3.57c0,.19,.15,.34,.34,.34s.34-.15,.34-.34v-3.57h2.24v3.57c0,.19,.15,.34,.34,.34s.34-.15,.34-.34v-3.57h2.24v3.57c0,.19,.15,.34,.34,.34s.34-.15,.34-.34v-3.6c1.04-.15,1.87-.97,2.02-2.01h3.6c.19,0,.34-.15,.34-.34s-.15-.34-.34-.34Z"/><path class="cls-2" d="M21.38,17.63h4.02c.19,0,.34-.15,.34-.34s-.15-.34-.34-.34h-8.11c-.19,0-.34,.15-.34,.34v2.77c0,.19,.15,.34,.34,.34s.34-.15,.34-.34v-2.43h3.07v6.25c0,.06,.01,.11,.04,.16l1.68,3.13c-.39,.32-.65,.8-.65,1.35,0,.97,.79,1.76,1.76,1.76s1.76-.79,1.76-1.76-.79-1.75-1.76-1.75c-.18,0-.35,.03-.51,.08l-1.64-3.05v-6.17Zm3.23,10.89c0,.6-.48,1.08-1.08,1.08s-1.08-.48-1.08-1.08,.48-1.07,1.08-1.07,1.08,.48,1.08,1.07Z"/></g><g><circle class="cls-1" cx="40.91" cy="14.09" r="6.5"/><polygon class="cls-2" points="42.01 12.98 42.01 10.78 39.81 10.78 39.81 12.98 37.6 12.98 37.6 15.19 39.81 15.19 39.81 17.4 42.01 17.4 42.01 15.19 44.22 15.19 44.22 12.98 42.01 12.98"/></g></svg>